<svg width="512" height="512" viewBox="0 0 512 512" fill="none" xmlns="http://www.w3.org/2000/svg">
<g clip-path="url(#clip0_1330_2)">
<rect width="512" height="512" rx="120" fill="white"/>
<g clip-path="url(#clip1_1330_2)" filter="url(#filter0_d_1330_2)">
<path d="M434.328 217.778L128.966 115.427C121.571 112.962 113.45 121.083 115.915 128.478L218.266 433.84C219.572 437.466 222.761 440.075 226.532 440.656C230.591 441.235 234.362 439.495 236.537 436.16L290.771 354.956L271.485 270.996L355.443 290.283L436.648 236.049C439.983 233.874 441.723 230.104 441.143 226.044C440.563 222.273 437.954 219.084 434.328 217.778Z" fill="url(#paint0_linear_1330_2)"/>
<path d="M213.481 212.994L290.771 354.956L356.942 368.634C364.252 369.854 370.342 363.763 369.122 356.454L355.444 290.283L213.481 212.994Z" fill="url(#paint1_linear_1330_2)"/>
</g>
</g>
<defs>
<filter id="filter0_d_1330_2" x="-20" y="-14.4874" width="524.975" height="524.975" filterUnits="userSpaceOnUse" color-interpolation-filters="sRGB">
<feFlood flood-opacity="0" result="BackgroundImageFix"/>
<feColorMatrix in="SourceAlpha" type="matrix" values="0 0 0 0 0 0 0 0 0 0 0 0 0 0 0 0 0 0 127 0" result="hardAlpha"/>
<feOffset dy="6"/>
<feGaussianBlur stdDeviation="7.5"/>
<feColorMatrix type="matrix" values="0 0 0 0 0 0 0 0 0 0 0 0 0 0 0 0 0 0 0.25 0"/>
<feBlend mode="normal" in2="BackgroundImageFix" result="effect1_dropShadow_1330_2"/>
<feBlend mode="normal" in="SourceGraphic" in2="effect1_dropShadow_1330_2" result="shape"/>
</filter>
<linearGradient id="paint0_linear_1330_2" x1="336.753" y1="336.264" x2="118.743" y2="118.255" gradientUnits="userSpaceOnUse">
<stop stop-color="#5558FF"/>
<stop offset="1" stop-color="#00C0FF"/>
</linearGradient>
<linearGradient id="paint1_linear_1330_2" x1="366.23" y1="365.743" x2="213.481" y2="212.994" gradientUnits="userSpaceOnUse">
<stop stop-color="#ADDCFF"/>
<stop offset="0.5028" stop-color="#EAF6FF"/>
<stop offset="1" stop-color="#EAF6FF"/>
</linearGradient>
<clipPath id="clip0_1330_2">
<rect width="512" height="512" rx="120" fill="white"/>
</clipPath>
<clipPath id="clip1_1330_2">
<rect width="350" height="350" fill="white" transform="translate(-5 242) rotate(-45)"/>
</clipPath>
</defs>
</svg>
