<svg width="1582" height="512" viewBox="0 0 1582 512" fill="none" xmlns="http://www.w3.org/2000/svg">
<g clip-path="url(#clip0_1345_2)" filter="url(#filter0_d_1345_2)">
<path d="M509.328 232.265L203.966 129.914C196.571 127.449 188.45 135.57 190.915 142.965L293.266 448.327C294.572 451.953 297.762 454.562 301.532 455.143C305.592 455.723 309.362 453.982 311.538 450.648L365.771 369.443L346.485 285.484L430.444 304.77L511.649 250.537C514.983 248.361 516.723 244.591 516.144 240.531C515.563 236.761 512.955 233.571 509.328 232.265Z" fill="url(#paint0_linear_1345_2)"/>
<path d="M288.482 227.481L365.771 369.443L431.943 383.122C439.252 384.341 445.342 378.25 444.123 370.941L430.444 304.77L288.482 227.481Z" fill="url(#paint1_linear_1345_2)"/>
</g>
<path d="M711.584 182.3V324.487H684.826V182.3H711.584ZM755.725 182.3V203.491H641.174V182.3H755.725ZM809.924 326.44C801.916 326.44 794.722 325.138 788.342 322.534C781.962 319.93 776.525 316.317 772.033 311.694C767.606 307.007 764.188 301.571 761.779 295.386C759.436 289.136 758.264 282.43 758.264 275.269V271.362C758.264 263.224 759.436 255.835 761.779 249.194C764.123 242.489 767.443 236.727 771.74 231.909C776.037 227.091 781.18 223.381 787.17 220.776C793.16 218.172 799.768 216.87 806.994 216.87C814.481 216.87 821.089 218.14 826.818 220.679C832.548 223.153 837.333 226.668 841.174 231.226C845.015 235.783 847.912 241.252 849.865 247.632C851.818 253.947 852.795 260.946 852.795 268.628V279.468H769.982V261.694H827.404V259.741C827.274 255.64 826.493 251.896 825.061 248.511C823.628 245.06 821.415 242.326 818.42 240.308C815.425 238.224 811.551 237.183 806.799 237.183C802.958 237.183 799.605 238.029 796.74 239.722C793.941 241.349 791.597 243.693 789.709 246.753C787.886 249.748 786.519 253.328 785.607 257.495C784.696 261.662 784.24 266.284 784.24 271.362V275.269C784.24 279.696 784.826 283.797 785.998 287.573C787.235 291.349 789.025 294.637 791.369 297.437C793.778 300.171 796.643 302.319 799.963 303.882C803.348 305.379 807.189 306.128 811.486 306.128C816.89 306.128 821.773 305.086 826.135 303.003C830.562 300.854 834.403 297.697 837.658 293.53L850.646 307.007C848.433 310.262 845.438 313.387 841.662 316.382C837.951 319.377 833.459 321.818 828.186 323.706C822.912 325.529 816.825 326.44 809.924 326.44ZM897.424 174.487V324.487H871.545V174.487H897.424ZM969.494 326.44C961.486 326.44 954.292 325.138 947.912 322.534C941.532 319.93 936.096 316.317 931.604 311.694C927.176 307.007 923.758 301.571 921.35 295.386C919.006 289.136 917.834 282.43 917.834 275.269V271.362C917.834 263.224 919.006 255.835 921.35 249.194C923.693 242.489 927.014 236.727 931.311 231.909C935.607 227.091 940.751 223.381 946.74 220.776C952.73 218.172 959.338 216.87 966.564 216.87C974.051 216.87 980.66 218.14 986.389 220.679C992.118 223.153 996.903 226.668 1000.74 231.226C1004.59 235.783 1007.48 241.252 1009.44 247.632C1011.39 253.947 1012.37 260.946 1012.37 268.628V279.468H929.553V261.694H986.975V259.741C986.844 255.64 986.063 251.896 984.631 248.511C983.199 245.06 980.985 242.326 977.99 240.308C974.995 238.224 971.122 237.183 966.369 237.183C962.528 237.183 959.175 238.029 956.311 239.722C953.511 241.349 951.167 243.693 949.279 246.753C947.456 249.748 946.089 253.328 945.178 257.495C944.266 261.662 943.811 266.284 943.811 271.362V275.269C943.811 279.696 944.396 283.797 945.568 287.573C946.805 291.349 948.596 294.637 950.939 297.437C953.348 300.171 956.213 302.319 959.533 303.882C962.919 305.379 966.76 306.128 971.057 306.128C976.46 306.128 981.343 305.086 985.705 303.003C990.132 300.854 993.973 297.697 997.229 293.53L1010.22 307.007C1008 310.262 1005.01 313.387 1001.23 316.382C997.521 319.377 993.029 321.818 987.756 323.706C982.482 325.529 976.395 326.44 969.494 326.44ZM1073.01 306.128C1076.66 306.128 1079.91 305.412 1082.78 303.979C1085.64 302.547 1087.92 300.529 1089.61 297.925C1091.37 295.321 1092.31 292.293 1092.44 288.843H1116.76C1116.63 296.004 1114.61 302.417 1110.71 308.081C1106.8 313.745 1101.59 318.237 1095.08 321.558C1088.63 324.813 1081.41 326.44 1073.4 326.44C1065.26 326.44 1058.17 325.073 1052.11 322.339C1046.06 319.604 1041.01 315.796 1036.97 310.913C1033 306.03 1030.01 300.366 1027.99 293.921C1026.04 287.476 1025.06 280.575 1025.06 273.218V270.093C1025.06 262.736 1026.04 255.835 1027.99 249.39C1030.01 242.944 1033 237.28 1036.97 232.397C1041.01 227.515 1046.06 223.706 1052.11 220.972C1058.17 218.237 1065.23 216.87 1073.3 216.87C1081.83 216.87 1089.32 218.53 1095.76 221.851C1102.27 225.171 1107.35 229.858 1111 235.913C1114.71 241.968 1116.63 249.097 1116.76 257.3H1092.44C1092.31 253.524 1091.47 250.138 1089.9 247.144C1088.34 244.149 1086.13 241.74 1083.26 239.917C1080.4 238.094 1076.92 237.183 1072.81 237.183C1068.45 237.183 1064.81 238.094 1061.88 239.917C1059.01 241.74 1056.77 244.246 1055.14 247.437C1053.58 250.562 1052.47 254.077 1051.82 257.983C1051.23 261.825 1050.94 265.861 1050.94 270.093V273.218C1050.94 277.515 1051.23 281.616 1051.82 285.522C1052.47 289.429 1053.58 292.944 1055.14 296.069C1056.77 299.129 1059.01 301.571 1061.88 303.394C1064.81 305.216 1068.52 306.128 1073.01 306.128ZM1161.29 174.487V324.487H1135.41V174.487H1161.29ZM1181.31 272.729V270.679C1181.31 262.931 1182.42 255.802 1184.63 249.292C1186.84 242.716 1190.07 237.02 1194.3 232.202C1198.53 227.384 1203.71 223.641 1209.83 220.972C1215.95 218.237 1222.91 216.87 1230.72 216.87C1238.67 216.87 1245.7 218.237 1251.82 220.972C1258 223.641 1263.21 227.384 1267.44 232.202C1271.68 237.02 1274.9 242.716 1277.11 249.292C1279.32 255.802 1280.43 262.931 1280.43 270.679V272.729C1280.43 280.412 1279.32 287.541 1277.11 294.116C1274.9 300.627 1271.68 306.323 1267.44 311.206C1263.21 316.024 1258.04 319.767 1251.92 322.437C1245.8 325.106 1238.8 326.44 1230.92 326.44C1223.11 326.44 1216.11 325.106 1209.92 322.437C1203.74 319.767 1198.53 316.024 1194.3 311.206C1190.07 306.323 1186.84 300.627 1184.63 294.116C1182.42 287.541 1181.31 280.412 1181.31 272.729ZM1207.09 270.679V272.729C1207.09 277.352 1207.55 281.681 1208.46 285.718C1209.37 289.754 1210.77 293.302 1212.66 296.362C1214.55 299.422 1216.99 301.831 1219.98 303.589C1223.04 305.282 1226.69 306.128 1230.92 306.128C1235.09 306.128 1238.67 305.282 1241.66 303.589C1244.66 301.831 1247.1 299.422 1248.99 296.362C1250.94 293.302 1252.37 289.754 1253.28 285.718C1254.19 281.681 1254.65 277.352 1254.65 272.729V270.679C1254.65 266.121 1254.19 261.857 1253.28 257.886C1252.37 253.849 1250.94 250.301 1248.99 247.241C1247.1 244.116 1244.62 241.675 1241.56 239.917C1238.57 238.094 1234.96 237.183 1230.72 237.183C1226.56 237.183 1222.98 238.094 1219.98 239.917C1216.99 241.675 1214.55 244.116 1212.66 247.241C1210.77 250.301 1209.37 253.849 1208.46 257.886C1207.55 261.857 1207.09 266.121 1207.09 270.679ZM1362.07 299.39V218.823H1388.05V324.487H1363.63L1362.07 299.39ZM1365.39 277.515L1373.4 277.319C1373.4 284.416 1372.62 290.959 1371.06 296.948C1369.49 302.938 1367.05 308.146 1363.73 312.573C1360.48 316.935 1356.34 320.353 1351.33 322.827C1346.32 325.236 1340.39 326.44 1333.56 326.44C1328.35 326.44 1323.6 325.724 1319.3 324.292C1315 322.795 1311.29 320.483 1308.17 317.358C1305.11 314.168 1302.73 310.099 1301.04 305.151C1299.34 300.138 1298.5 294.116 1298.5 287.085V218.823H1324.28V287.28C1324.28 290.796 1324.67 293.726 1325.45 296.069C1326.3 298.413 1327.44 300.334 1328.87 301.831C1330.37 303.263 1332.09 304.305 1334.04 304.956C1336.06 305.542 1338.21 305.835 1340.49 305.835C1346.74 305.835 1351.66 304.598 1355.24 302.124C1358.88 299.585 1361.49 296.2 1363.05 291.968C1364.61 287.671 1365.39 282.853 1365.39 277.515ZM1474.28 302.026V174.487H1500.26V324.487H1476.82L1474.28 302.026ZM1406.41 272.925V270.874C1406.41 262.801 1407.32 255.477 1409.14 248.901C1411.03 242.261 1413.76 236.564 1417.35 231.812C1420.93 227.059 1425.26 223.381 1430.33 220.776C1435.48 218.172 1441.3 216.87 1447.81 216.87C1454.13 216.87 1459.63 218.14 1464.32 220.679C1469.07 223.218 1473.11 226.831 1476.43 231.519C1479.81 236.206 1482.51 241.772 1484.53 248.218C1486.55 254.598 1488.02 261.629 1488.93 269.312V274.878C1488.02 282.365 1486.55 289.233 1484.53 295.483C1482.51 301.733 1479.81 307.202 1476.43 311.89C1473.11 316.512 1469.07 320.093 1464.32 322.632C1459.57 325.171 1454 326.44 1447.62 326.44C1441.17 326.44 1435.38 325.106 1430.24 322.437C1425.16 319.767 1420.83 316.024 1417.25 311.206C1413.73 306.388 1411.03 300.724 1409.14 294.214C1407.32 287.703 1406.41 280.607 1406.41 272.925ZM1432.29 270.874V272.925C1432.29 277.482 1432.68 281.746 1433.46 285.718C1434.24 289.689 1435.51 293.205 1437.27 296.265C1439.03 299.259 1441.27 301.603 1444.01 303.296C1446.81 304.989 1450.19 305.835 1454.16 305.835C1459.24 305.835 1463.41 304.728 1466.66 302.515C1469.98 300.236 1472.55 297.144 1474.38 293.237C1476.2 289.266 1477.37 284.806 1477.89 279.858V264.526C1477.63 260.62 1476.95 257.007 1475.84 253.687C1474.8 250.366 1473.3 247.502 1471.35 245.093C1469.46 242.684 1467.12 240.796 1464.32 239.429C1461.52 238.062 1458.2 237.378 1454.36 237.378C1450.39 237.378 1447 238.257 1444.2 240.015C1441.4 241.707 1439.12 244.084 1437.37 247.144C1435.61 250.203 1434.31 253.752 1433.46 257.788C1432.68 261.825 1432.29 266.187 1432.29 270.874Z" fill="#4895EF"/>
<defs>
<filter id="filter0_d_1345_2" x="55" y="-6.10352e-05" width="524.975" height="524.975" filterUnits="userSpaceOnUse" color-interpolation-filters="sRGB">
<feFlood flood-opacity="0" result="BackgroundImageFix"/>
<feColorMatrix in="SourceAlpha" type="matrix" values="0 0 0 0 0 0 0 0 0 0 0 0 0 0 0 0 0 0 127 0" result="hardAlpha"/>
<feOffset dy="6"/>
<feGaussianBlur stdDeviation="7.5"/>
<feColorMatrix type="matrix" values="0 0 0 0 0 0 0 0 0 0 0 0 0 0 0 0 0 0 0.25 0"/>
<feBlend mode="normal" in2="BackgroundImageFix" result="effect1_dropShadow_1345_2"/>
<feBlend mode="normal" in="SourceGraphic" in2="effect1_dropShadow_1345_2" result="shape"/>
</filter>
<linearGradient id="paint0_linear_1345_2" x1="411.753" y1="350.752" x2="193.744" y2="132.742" gradientUnits="userSpaceOnUse">
<stop stop-color="#5558FF"/>
<stop offset="1" stop-color="#00C0FF"/>
</linearGradient>
<linearGradient id="paint1_linear_1345_2" x1="441.231" y1="380.23" x2="288.482" y2="227.481" gradientUnits="userSpaceOnUse">
<stop stop-color="#ADDCFF"/>
<stop offset="0.5028" stop-color="#EAF6FF"/>
<stop offset="1" stop-color="#EAF6FF"/>
</linearGradient>
<clipPath id="clip0_1345_2">
<rect width="350" height="350" fill="white" transform="translate(70 256.487) rotate(-45)"/>
</clipPath>
</defs>
</svg>
